<svg version="1.1" id="Layer_1" xmlns="http://www.w3.org/2000/svg" xmlns:xlink="http://www.w3.org/1999/xlink" x="0px" y="0px"
	 width="100%" viewBox="0 0 1080 1080" enable-background="new 0 0 1080 1080" xml:space="preserve">
<path fill="#000000" opacity="1.000000" stroke="none" 
	d="
M1.000000,409.000000 
	C1.000000,272.682343 1.000000,136.864685 1.000000,1.023512 
	C360.942780,1.023512 720.885559,1.023512 1080.914185,1.023512 
	C1080.914185,360.901215 1080.914185,720.802490 1080.914185,1080.851807 
	C721.000061,1080.851807 361.000031,1080.851807 1.000000,1080.851807 
	C1.000000,857.114014 1.000000,633.307007 1.000000,409.000000 
M358.049866,1001.473328 
	C358.352936,1001.604187 358.656006,1001.735046 359.783356,1001.999023 
	C365.897614,1003.144470 371.999329,1004.362732 378.128876,1005.419495 
	C389.402557,1007.362854 400.692657,1009.211365 412.366608,1011.700439 
	C413.905640,1012.269348 415.489288,1012.740906 416.976624,1013.422668 
	C428.297821,1018.611572 439.397156,1024.352661 450.954224,1028.943481 
	C470.049011,1036.528442 489.919739,1041.525757 510.361206,1043.853516 
	C518.336365,1044.761719 526.408386,1044.819336 535.101379,1045.301147 
	C535.101379,1037.629395 535.101379,1030.848511 536.002563,1024.012085 
	C539.326599,1024.035278 542.650574,1024.058472 545.993591,1025.007812 
	C545.993591,1031.545532 545.993591,1038.083130 545.993591,1045.351807 
	C551.789734,1044.916626 557.848328,1044.312744 563.921814,1044.033691 
	C582.101013,1043.198364 599.561218,1038.764404 616.854980,1033.552979 
	C634.814392,1028.141113 651.493408,1019.763245 668.875549,1010.996338 
	C674.533508,1010.148804 680.215515,1009.435608 685.844360,1008.426025 
	C697.584351,1006.320374 709.296265,1004.058105 721.819031,1001.941101 
	C728.158325,1000.493225 734.583191,999.342102 740.821777,997.544556 
	C764.263855,990.790283 787.843140,984.424805 810.997925,976.783264 
	C838.194336,967.807739 863.952087,955.492615 888.178406,940.060913 
	C891.939209,937.665344 892.758118,935.000671 891.566895,931.134033 
	C891.326904,930.354858 891.076233,929.550537 891.026001,928.745667 
	C890.000000,912.288330 889.192810,895.814331 887.910706,879.377319 
	C887.354309,872.243591 885.832031,865.185242 884.938293,857.233643 
	C882.595398,842.510986 881.071106,827.599060 877.721802,813.109009 
	C872.418091,790.163635 866.186646,767.417236 859.747864,744.757019 
	C856.947388,734.901245 852.659058,725.468262 849.035034,715.210754 
	C848.977539,714.794373 848.920044,714.377991 848.824402,713.451965 
	C848.560852,713.244141 848.297241,713.036377 847.998657,712.385193 
	C847.998657,712.385193 847.862732,711.961731 847.825562,711.455200 
	C847.559143,711.256348 847.292725,711.057495 847.025818,710.106628 
	C838.633728,692.182739 830.241577,674.258911 821.792847,656.214111 
	C827.699646,652.931152 834.118713,649.574890 840.330811,645.871338 
	C859.182617,634.632385 877.302307,622.323608 893.238098,607.141724 
	C900.922058,599.821350 907.987732,591.851685 915.325684,584.168640 
	C920.613831,578.631836 924.368835,572.687012 923.116821,564.354858 
	C922.186890,558.166260 922.437500,551.807739 921.997070,545.536499 
	C921.060364,532.197144 920.288696,518.837891 918.948303,505.537262 
	C917.198975,488.178864 915.618713,470.761108 912.774658,453.565918 
	C909.130737,431.535034 904.812317,409.584015 899.861450,387.808441 
	C892.708984,356.349548 884.051086,325.222260 871.080383,295.625214 
	C861.165527,273.001068 850.675659,250.505692 838.582947,228.998093 
	C828.862732,211.710007 816.898682,195.579529 804.919067,179.698166 
	C794.999756,166.548080 783.604004,154.511719 772.962769,141.162674 
	C772.648499,139.565475 772.383911,137.956635 772.012512,136.372818 
	C764.869446,105.911110 754.232239,76.812065 737.915833,49.987297 
	C735.707275,46.356270 732.634399,43.250938 729.257996,40.015163 
	C723.625549,43.643730 717.935974,47.187012 712.372864,50.918991 
	C701.532715,58.191093 690.763367,65.568901 679.290955,72.719513 
	C660.360535,62.694748 640.549377,54.912331 619.995850,48.872143 
	C599.563599,42.867592 578.668335,39.268898 557.514832,38.215462 
	C538.026062,37.244930 518.366821,37.050072 499.069061,41.036049 
	C483.204010,44.312996 467.098053,47.032948 451.737671,51.982277 
	C434.456970,57.550350 417.892487,65.341301 400.388672,71.843781 
	C384.952850,61.736404 369.527832,51.612350 354.060150,41.553951 
	C352.848755,40.766228 351.339386,40.436775 349.348480,40.205139 
	C345.712402,45.833111 341.706512,51.259106 338.503540,57.123638 
	C323.743500,84.148781 313.523285,112.867805 306.846558,143.583054 
	C299.122833,152.013214 290.702148,159.915222 283.826904,168.988297 
	C271.215881,185.630692 259.060486,202.662201 247.538513,220.076248 
	C227.975098,249.643890 213.784485,281.900085 201.885300,315.202393 
	C191.525772,344.195709 183.255692,373.789398 177.073090,403.935822 
	C173.376801,421.958984 169.972473,440.060547 167.140762,458.236542 
	C164.860550,472.872620 163.358459,487.647888 162.014969,502.407288 
	C160.398178,520.169006 159.326187,537.980042 157.988068,555.767456 
	C157.778290,558.556152 157.052139,561.351440 157.196640,564.110596 
	C157.407822,568.143066 156.875259,573.109802 158.978180,575.978943 
	C165.111313,584.346680 172.112640,592.142639 179.318314,599.639099 
	C184.913895,605.460449 191.018463,610.901550 197.444641,615.791687 
	C209.080261,624.646301 220.904892,633.293762 233.072861,641.393311 
	C241.640320,647.096252 250.906296,651.749756 260.009735,656.957214 
	C257.969879,660.554749 255.803635,663.873962 254.124222,667.423401 
	C246.662003,683.194946 239.339264,699.032471 231.518616,715.076416 
	C231.392975,715.367981 231.267349,715.659485 231.004776,716.570801 
	C230.991119,716.993652 230.977463,717.416443 230.517654,718.074402 
	C230.391922,718.366760 230.266174,718.659119 230.002747,719.574219 
	C229.986771,719.999023 229.970779,720.423767 229.354202,721.274048 
	C223.571533,739.143005 217.048935,756.814331 212.207581,774.934753 
	C207.029083,794.317017 203.218613,814.079041 199.255814,833.764771 
	C197.648056,841.751587 197.215149,849.974854 195.837418,858.800537 
	C195.218246,863.308716 194.415802,867.800659 194.013031,872.328064 
	C192.600922,888.200623 191.339798,904.086548 189.982697,919.964050 
	C189.816299,921.910889 188.940247,923.908691 189.216690,925.759888 
	C189.933975,930.563416 185.961197,936.549622 192.461548,939.968323 
	C210.225983,949.311462 227.573349,959.610535 245.900589,967.680908 
	C271.059875,978.759705 297.395599,986.854797 324.102905,993.506897 
	C335.309265,996.298157 346.638153,998.597351 357.961060,1001.023865 
	C357.961060,1001.023865 357.865082,1000.973145 358.049866,1001.473328 
z"/>
<path fill="#986844" opacity="1.000000" stroke="none" 
	d="
M401.016449,72.165298 
	C417.892487,65.341301 434.456970,57.550350 451.737671,51.982277 
	C467.098053,47.032948 483.204010,44.312996 499.069061,41.036049 
	C518.366821,37.050072 538.026062,37.244930 557.514832,38.215462 
	C578.668335,39.268898 599.563599,42.867592 619.995850,48.872143 
	C640.549377,54.912331 660.360535,62.694748 679.815613,73.095497 
	C687.495911,79.423378 694.952637,85.052177 701.751282,91.387207 
	C722.925293,111.117439 741.054504,133.466202 756.995972,157.570755 
	C782.147766,195.601974 800.857788,236.766785 815.389587,279.858582 
	C828.995850,320.206055 838.349976,361.601044 844.817383,403.668457 
	C850.308472,439.386108 853.297852,475.350922 854.837585,511.415527 
	C855.604370,529.376770 855.094971,547.398560 854.874634,565.389465 
	C854.839966,568.219360 853.839966,571.388672 852.325256,573.796387 
	C830.719482,608.138428 806.515686,640.459290 777.521057,669.009521 
	C774.917542,671.573059 772.525391,674.351318 769.732910,677.214233 
	C767.141296,678.375793 764.902161,679.498657 762.555115,680.308655 
	C718.455933,695.528259 673.147949,705.430847 626.889893,711.200500 
	C592.695679,715.465454 558.443359,719.150635 523.932678,716.942993 
	C498.713959,715.329834 473.458008,713.603455 448.386536,710.549377 
	C412.966736,706.234863 378.065277,698.861084 343.853302,688.609924 
	C332.728516,685.276550 321.908264,680.927002 310.772095,676.760071 
	C301.429413,666.863342 292.029907,657.458984 283.144104,647.591980 
	C262.145630,624.274719 243.803635,598.951294 227.534988,572.139587 
	C226.066711,569.719666 225.083191,566.539246 225.136703,563.736145 
	C225.562042,541.457153 225.685867,519.145630 227.087601,496.918854 
	C228.739639,470.723236 230.956726,444.528839 234.039566,418.465302 
	C239.688797,370.704620 250.363968,323.968475 265.787659,278.412354 
	C281.614960,231.664032 302.567902,187.368729 331.089172,146.886047 
	C349.786102,120.347900 371.186707,96.327187 397.008026,76.439217 
	C398.535400,75.262833 399.688934,73.601151 401.016449,72.165298 
z"/>
<path fill="#986844" opacity="1.000000" stroke="none" 
	d="
M535.101379,1024.067627 
	C535.101379,1030.848511 535.101379,1037.629395 535.101379,1045.301147 
	C526.408386,1044.819336 518.336365,1044.761719 510.361206,1043.853516 
	C489.919739,1041.525757 470.049011,1036.528442 450.954224,1028.943481 
	C439.397156,1024.352661 428.297821,1018.611572 416.976624,1013.422668 
	C415.489288,1012.740906 413.905640,1012.269348 411.969849,1011.125671 
	C410.360779,1009.694275 409.212524,1008.724365 407.926727,1007.997803 
	C381.431488,993.027161 357.100708,974.995605 335.005920,954.195801 
	C320.496857,940.537170 306.943115,925.795288 293.714905,910.870850 
	C286.143433,902.328369 279.216919,892.946777 273.522064,883.065735 
	C262.543884,864.017761 253.575851,843.940735 246.938599,822.498291 
	C242.195068,802.354736 241.202698,782.486877 243.830261,762.282043 
	C248.214523,728.568848 258.460724,696.453369 269.330261,664.465576 
	C270.280823,661.668274 271.862213,661.151672 274.210602,662.669861 
	C276.860535,664.383118 279.442261,666.201843 282.350586,668.135864 
	C307.791199,684.682800 334.899902,696.912964 363.346497,706.255676 
	C398.583557,717.828613 434.678467,725.641479 471.507629,729.815674 
	C490.828369,732.005554 510.226868,734.092285 529.638733,734.714539 
	C545.879761,735.235168 562.310425,734.558105 578.444702,732.631958 
	C605.352661,729.419556 632.270020,725.705994 658.858765,720.534424 
	C699.098816,712.707520 737.683167,699.549255 773.885376,679.980774 
	C777.076416,678.255920 779.989441,676.016785 783.014282,674.006714 
	C782.996887,673.996887 783.008362,674.035034 783.285645,673.912720 
	C784.086914,673.194153 784.611023,672.597839 785.506348,671.993408 
	C791.917053,669.315002 797.951172,666.632568 803.997620,663.978394 
	C809.564331,661.534912 810.559326,661.777344 812.264404,667.486267 
	C818.730835,689.136414 825.604492,710.690308 831.203857,732.567261 
	C837.118103,755.674622 840.060730,779.250793 836.969543,803.191284 
	C836.119751,809.773315 835.020813,816.323181 833.806030,823.175598 
	C832.961670,824.996765 832.261841,826.501953 831.745911,828.067749 
	C824.574951,849.830505 815.518982,870.929688 802.758667,889.832153 
	C780.157410,923.312622 751.595276,951.545532 719.585449,976.016479 
	C703.102112,988.617676 685.243286,999.419556 668.006042,1011.034546 
	C651.493408,1019.763245 634.814392,1028.141113 616.854980,1033.552979 
	C599.561218,1038.764404 582.101013,1043.198364 563.921814,1044.033691 
	C557.848328,1044.312744 551.789734,1044.916626 545.993591,1045.351807 
	C545.993591,1038.083130 545.993591,1031.545532 546.041748,1024.123291 
	C547.102905,1010.307678 547.805359,997.343140 549.185364,984.451233 
	C553.921570,940.206970 561.288818,896.368896 571.095215,852.982422 
	C577.885803,822.938965 585.610535,793.106567 592.930420,763.182922 
	C594.281311,757.660461 594.023193,757.434875 588.233948,756.933289 
	C558.986206,754.399170 529.711304,755.005920 500.434784,756.127563 
	C495.996643,756.297546 491.578918,757.000488 486.607330,757.513062 
	C486.944641,759.554199 487.092499,761.162231 487.483917,762.708679 
	C491.815247,779.821167 496.395416,796.873596 500.505554,814.038696 
	C515.833435,878.052734 528.664307,942.494446 533.173279,1008.335815 
	C533.533752,1013.599121 534.445679,1018.824585 535.101379,1024.067627 
z"/>
<path fill="#895D3D" opacity="1.000000" stroke="none" 
	d="
M282.053650,667.974670 
	C279.442261,666.201843 276.860535,664.383118 274.210602,662.669861 
	C271.862213,661.151672 270.280823,661.668274 269.330261,664.465576 
	C258.460724,696.453369 248.214523,728.568848 243.830261,762.282043 
	C241.202698,782.486877 242.195068,802.354736 246.597733,822.604004 
	C241.553467,825.769287 236.806320,828.439209 231.852829,830.800659 
	C231.033417,828.949951 230.253143,827.451965 229.832291,825.858948 
	C223.219986,800.829468 220.944077,775.463501 224.616974,749.758789 
	C226.001999,740.065735 228.152985,730.482117 229.954803,720.848572 
	C229.970779,720.423767 229.986771,719.999023 230.213928,719.081360 
	C230.597580,718.333679 230.777145,718.083923 230.963806,717.839294 
	C230.977463,717.416443 230.991119,716.993652 231.215546,716.080566 
	C231.598862,715.336853 231.778793,715.088806 231.966095,714.846130 
	C239.339264,699.032471 246.662003,683.194946 254.124222,667.423401 
	C255.803635,663.873962 257.969879,660.554749 260.009735,656.957214 
	C250.906296,651.749756 241.640320,647.096252 233.072861,641.393311 
	C220.904892,633.293762 209.080261,624.646301 197.444641,615.791687 
	C191.018463,610.901550 184.913895,605.460449 179.318314,599.639099 
	C172.112640,592.142639 165.111313,584.346680 158.978180,575.978943 
	C156.875259,573.109802 157.407822,568.143066 157.196640,564.110596 
	C157.052139,561.351440 157.778290,558.556152 157.988068,555.767456 
	C159.326187,537.980042 160.398178,520.169006 162.014969,502.407288 
	C163.358459,487.647888 164.860550,472.872620 167.140762,458.236542 
	C169.972473,440.060547 173.376801,421.958984 177.073090,403.935822 
	C183.255692,373.789398 191.525772,344.195709 201.885300,315.202393 
	C213.784485,281.900085 227.975098,249.643890 247.538513,220.076248 
	C259.060486,202.662201 271.215881,185.630692 283.826904,168.988297 
	C290.702148,159.915222 299.122833,152.013214 307.319794,143.178406 
	C308.984497,141.888123 310.327026,141.148453 311.344696,140.094925 
	C326.188934,124.727264 342.457855,111.031593 359.923309,98.757256 
	C362.569183,96.897797 362.955139,94.836700 362.248413,91.896667 
	C358.085541,74.579285 354.048126,57.231735 349.968506,39.894341 
	C351.339386,40.436775 352.848755,40.766228 354.060150,41.553951 
	C369.527832,51.612350 384.952850,61.736404 400.702576,72.004539 
	C399.688934,73.601151 398.535400,75.262833 397.008026,76.439217 
	C371.186707,96.327187 349.786102,120.347900 331.089172,146.886047 
	C302.567902,187.368729 281.614960,231.664032 265.787659,278.412354 
	C250.363968,323.968475 239.688797,370.704620 234.039566,418.465302 
	C230.956726,444.528839 228.739639,470.723236 227.087601,496.918854 
	C225.685867,519.145630 225.562042,541.457153 225.136703,563.736145 
	C225.083191,566.539246 226.066711,569.719666 227.534988,572.139587 
	C243.803635,598.951294 262.145630,624.274719 283.144104,647.591980 
	C292.029907,657.458984 301.429413,666.863342 310.380798,676.735352 
	C302.639343,674.255859 295.134918,671.454590 287.568848,668.830811 
	C285.839447,668.231140 283.897675,668.243835 282.053650,667.974670 
z"/>
<path fill="#895D3D" opacity="1.000000" stroke="none" 
	d="
M834.036133,822.887817 
	C835.020813,816.323181 836.119751,809.773315 836.969543,803.191284 
	C840.060730,779.250793 837.118103,755.674622 831.203857,732.567261 
	C825.604492,710.690308 818.730835,689.136414 812.264404,667.486267 
	C810.559326,661.777344 809.564331,661.534912 803.997620,663.978394 
	C797.951172,666.632568 791.917053,669.315002 785.220764,672.113342 
	C784.045410,672.839355 783.526917,673.437195 783.008423,674.035034 
	C783.008362,674.035034 782.996887,673.996887 782.613770,674.016724 
	C778.165466,675.034302 774.100220,676.032043 770.035034,677.029846 
	C772.525391,674.351318 774.917542,671.573059 777.521057,669.009521 
	C806.515686,640.459290 830.719482,608.138428 852.325256,573.796387 
	C853.839966,571.388672 854.839966,568.219360 854.874634,565.389465 
	C855.094971,547.398560 855.604370,529.376770 854.837585,511.415527 
	C853.297852,475.350922 850.308472,439.386108 844.817383,403.668457 
	C838.349976,361.601044 828.995850,320.206055 815.389587,279.858582 
	C800.857788,236.766785 782.147766,195.601974 756.995972,157.570755 
	C741.054504,133.466202 722.925293,111.117439 701.751282,91.387207 
	C694.952637,85.052177 687.495911,79.423378 680.152466,73.187202 
	C690.763367,65.568901 701.532715,58.191093 712.372864,50.918991 
	C717.935974,47.187012 723.625549,43.643730 729.611572,40.382519 
	C726.440796,56.636940 723.189148,72.592094 719.247314,88.374863 
	C717.828857,94.054276 718.974670,97.231827 723.611816,100.966316 
	C738.720947,113.134247 753.277405,125.987717 768.075989,138.542664 
	C769.569275,139.809540 771.262207,140.841125 772.862427,141.981918 
	C783.604004,154.511719 794.999756,166.548080 804.919067,179.698166 
	C816.898682,195.579529 828.862732,211.710007 838.582947,228.998093 
	C850.675659,250.505692 861.165527,273.001068 871.080383,295.625214 
	C884.051086,325.222260 892.708984,356.349548 899.861450,387.808441 
	C904.812317,409.584015 909.130737,431.535034 912.774658,453.565918 
	C915.618713,470.761108 917.198975,488.178864 918.948303,505.537262 
	C920.288696,518.837891 921.060364,532.197144 921.997070,545.536499 
	C922.437500,551.807739 922.186890,558.166260 923.116821,564.354858 
	C924.368835,572.687012 920.613831,578.631836 915.325684,584.168640 
	C907.987732,591.851685 900.922058,599.821350 893.238098,607.141724 
	C877.302307,622.323608 859.182617,634.632385 840.330811,645.871338 
	C834.118713,649.574890 827.699646,652.931152 821.792847,656.214111 
	C830.241577,674.258911 838.633728,692.182739 847.165100,710.666870 
	C847.476440,711.482727 847.662537,711.727600 847.862732,711.961731 
	C847.862732,711.961731 847.998657,712.385193 848.154053,712.796082 
	C848.479187,713.469238 848.663513,713.720825 848.862549,713.961609 
	C848.920044,714.377991 848.977539,714.794373 849.047424,715.942871 
	C849.506409,718.954102 849.751343,721.295349 850.431641,723.502380 
	C855.468689,739.844177 857.651184,756.726196 857.752258,773.649658 
	C857.858276,791.420471 855.554016,809.126709 850.594727,826.329163 
	C850.112305,828.002502 848.880249,829.459656 847.708740,830.834839 
	C842.959534,828.064270 838.497864,825.476013 834.036133,822.887817 
z"/>
<path fill="#B78562" opacity="1.000000" stroke="none" 
	d="
M535.552002,1024.039795 
	C534.445679,1018.824585 533.533752,1013.599121 533.173279,1008.335815 
	C528.664307,942.494446 515.833435,878.052734 500.505554,814.038696 
	C496.395416,796.873596 491.815247,779.821167 487.483917,762.708679 
	C487.092499,761.162231 486.944641,759.554199 486.607330,757.513062 
	C491.578918,757.000488 495.996643,756.297546 500.434784,756.127563 
	C529.711304,755.005920 558.986206,754.399170 588.233948,756.933289 
	C594.023193,757.434875 594.281311,757.660461 592.930420,763.182922 
	C585.610535,793.106567 577.885803,822.938965 571.095215,852.982422 
	C561.288818,896.368896 553.921570,940.206970 549.185364,984.451233 
	C547.805359,997.343140 547.102905,1010.307678 546.032227,1023.660278 
	C542.650574,1024.058472 539.326599,1024.035278 535.552002,1024.039795 
z"/>
<path fill="#B78562" opacity="1.000000" stroke="none" 
	d="
M884.748413,858.092651 
	C885.832031,865.185242 887.354309,872.243591 887.910706,879.377319 
	C889.192810,895.814331 890.000000,912.288330 891.026001,928.745667 
	C891.076233,929.550537 891.326904,930.354858 891.566895,931.134033 
	C892.758118,935.000671 891.939209,937.665344 888.178406,940.060913 
	C863.952087,955.492615 838.194336,967.807739 810.997925,976.783264 
	C787.843140,984.424805 764.263855,990.790283 740.821777,997.544556 
	C734.583191,999.342102 728.158325,1000.493225 721.557068,1001.605591 
	C722.530579,1000.177185 723.751831,999.067688 725.003845,997.994080 
	C735.354919,989.117798 746.495667,980.998962 755.882202,971.199463 
	C769.788818,956.681152 782.833130,941.282898 795.553345,925.695129 
	C813.171204,904.105530 829.360229,881.482788 840.193176,855.535828 
	C843.334351,848.012146 846.132202,840.345276 849.438354,832.830811 
	C859.271240,839.845581 868.743042,846.787598 878.243286,853.690430 
	C880.360229,855.228638 882.577393,856.628906 884.748413,858.092651 
z"/>
<path fill="#B78562" opacity="1.000000" stroke="none" 
	d="
M357.911316,1001.120300 
	C346.638153,998.597351 335.309265,996.298157 324.102905,993.506897 
	C297.395599,986.854797 271.059875,978.759705 245.900589,967.680908 
	C227.573349,959.610535 210.225983,949.311462 192.461548,939.968323 
	C185.961197,936.549622 189.933975,930.563416 189.216690,925.759888 
	C188.940247,923.908691 189.816299,921.910889 189.982697,919.964050 
	C191.339798,904.086548 192.600922,888.200623 194.013031,872.328064 
	C194.415802,867.800659 195.218246,863.308716 196.362137,858.347229 
	C199.490829,855.861206 202.041092,853.754883 204.708511,851.809204 
	C213.782288,845.190674 222.897400,838.628906 232.038681,832.427551 
	C237.754929,853.010620 246.449203,872.023315 258.383545,889.069458 
	C272.758514,909.601746 288.459045,929.243896 304.233734,948.747253 
	C319.007141,967.012756 335.738098,983.434570 354.673706,997.493164 
	C355.948090,998.439270 356.840973,999.899292 357.911316,1001.120300 
z"/>
<path fill="#A47758" opacity="1.000000" stroke="none" 
	d="
M357.936188,1001.072083 
	C356.840973,999.899292 355.948090,998.439270 354.673706,997.493164 
	C335.738098,983.434570 319.007141,967.012756 304.233734,948.747253 
	C288.459045,929.243896 272.758514,909.601746 258.383545,889.069458 
	C246.449203,872.023315 237.754929,853.010620 232.053741,832.193237 
	C232.026825,831.576843 232.059189,831.109070 232.059189,831.109070 
	C236.806320,828.439209 241.553467,825.769287 246.641479,822.993652 
	C253.575851,843.940735 262.543884,864.017761 273.522064,883.065735 
	C279.216919,892.946777 286.143433,902.328369 293.714905,910.870850 
	C306.943115,925.795288 320.496857,940.537170 335.005920,954.195801 
	C357.100708,974.995605 381.431488,993.027161 407.926727,1007.997803 
	C409.212524,1008.724365 410.360779,1009.694275 411.774475,1010.825134 
	C400.692657,1009.211365 389.402557,1007.362854 378.128876,1005.419495 
	C371.999329,1004.362732 365.897614,1003.144470 359.188354,1001.784180 
	C358.329041,1001.396973 358.086273,1001.198242 357.865082,1000.973145 
	C357.865082,1000.973145 357.961060,1001.023865 357.936188,1001.072083 
z"/>
<path fill="#A47758" opacity="1.000000" stroke="none" 
	d="
M849.087463,832.744019 
	C846.132202,840.345276 843.334351,848.012146 840.193176,855.535828 
	C829.360229,881.482788 813.171204,904.105530 795.553345,925.695129 
	C782.833130,941.282898 769.788818,956.681152 755.882202,971.199463 
	C746.495667,980.998962 735.354919,989.117798 725.003845,997.994080 
	C723.751831,999.067688 722.530579,1000.177185 721.157410,1001.565125 
	C709.296265,1004.058105 697.584351,1006.320374 685.844360,1008.426025 
	C680.215515,1009.435608 674.533508,1010.148804 668.440796,1011.015381 
	C685.243286,999.419556 703.102112,988.617676 719.585449,976.016479 
	C751.595276,951.545532 780.157410,923.312622 802.758667,889.832153 
	C815.518982,870.929688 824.574951,849.830505 831.745911,828.067749 
	C832.261841,826.501953 832.961670,824.996765 833.806030,823.175598 
	C838.497864,825.476013 842.959534,828.064270 847.833679,831.059998 
	C848.526550,831.893005 848.807007,832.318542 849.087463,832.744019 
z"/>
<path fill="#986844" opacity="1.000000" stroke="none" 
	d="
M349.658508,40.049740 
	C354.048126,57.231735 358.085541,74.579285 362.248413,91.896667 
	C362.955139,94.836700 362.569183,96.897797 359.923309,98.757256 
	C342.457855,111.031593 326.188934,124.727264 311.344696,140.094925 
	C310.327026,141.148453 308.984497,141.888123 307.478760,142.876038 
	C313.523285,112.867805 323.743500,84.148781 338.503540,57.123638 
	C341.706512,51.259106 345.712402,45.833111 349.658508,40.049740 
z"/>
<path fill="#986844" opacity="1.000000" stroke="none" 
	d="
M772.912598,141.572296 
	C771.262207,140.841125 769.569275,139.809540 768.075989,138.542664 
	C753.277405,125.987717 738.720947,113.134247 723.611816,100.966316 
	C718.974670,97.231827 717.828857,94.054276 719.247314,88.374863 
	C723.189148,72.592094 726.440796,56.636940 729.963440,40.326035 
	C732.634399,43.250938 735.707275,46.356270 737.915833,49.987297 
	C754.232239,76.812065 764.869446,105.911110 772.012512,136.372818 
	C772.383911,137.956635 772.648499,139.565475 772.912598,141.572296 
z"/>
<path fill="#986844" opacity="1.000000" stroke="none" 
	d="
M849.438354,832.830811 
	C848.807007,832.318542 848.526550,831.893005 848.121155,831.242310 
	C848.880249,829.459656 850.112305,828.002502 850.594727,826.329163 
	C855.554016,809.126709 857.858276,791.420471 857.752258,773.649658 
	C857.651184,756.726196 855.468689,739.844177 850.431641,723.502380 
	C849.751343,721.295349 849.506409,718.954102 849.053101,716.259155 
	C852.659058,725.468262 856.947388,734.901245 859.747864,744.757019 
	C866.186646,767.417236 872.418091,790.163635 877.721802,813.109009 
	C881.071106,827.599060 882.595398,842.510986 884.843384,857.663147 
	C882.577393,856.628906 880.360229,855.228638 878.243286,853.690430 
	C868.743042,846.787598 859.271240,839.845581 849.438354,832.830811 
z"/>
<path fill="#986844" opacity="1.000000" stroke="none" 
	d="
M231.852829,830.800659 
	C232.059189,831.109070 232.026825,831.576843 232.011780,831.811157 
	C222.897400,838.628906 213.782288,845.190674 204.708511,851.809204 
	C202.041092,853.754883 199.490829,855.861206 196.567245,857.992188 
	C197.215149,849.974854 197.648056,841.751587 199.255814,833.764771 
	C203.218613,814.079041 207.029083,794.317017 212.207581,774.934753 
	C217.048935,756.814331 223.571533,739.143005 229.654495,721.061279 
	C228.152985,730.482117 226.001999,740.065735 224.616974,749.758789 
	C220.944077,775.463501 223.219986,800.829468 229.832291,825.858948 
	C230.253143,827.451965 231.033417,828.949951 231.852829,830.800659 
z"/>
<path fill="#986844" opacity="1.000000" stroke="none" 
	d="
M230.740723,717.956848 
	C230.777145,718.083923 230.597580,718.333679 230.282761,718.770020 
	C230.266174,718.659119 230.391922,718.366760 230.740723,717.956848 
z"/>
<path fill="#986844" opacity="1.000000" stroke="none" 
	d="
M231.742355,714.961304 
	C231.778793,715.088806 231.598862,715.336853 231.284012,715.770630 
	C231.267349,715.659485 231.392975,715.367981 231.742355,714.961304 
z"/>
<path fill="#986844" opacity="1.000000" stroke="none" 
	d="
M848.843506,713.706787 
	C848.663513,713.720825 848.479187,713.469238 848.171570,713.017761 
	C848.297241,713.036377 848.560852,713.244141 848.843506,713.706787 
z"/>
<path fill="#986844" opacity="1.000000" stroke="none" 
	d="
M847.844116,711.708496 
	C847.662537,711.727600 847.476440,711.482727 847.165283,711.042908 
	C847.292725,711.057495 847.559143,711.256348 847.844116,711.708496 
z"/>
<path fill="#B78562" opacity="1.000000" stroke="none" 
	d="
M357.957458,1001.223267 
	C358.086273,1001.198242 358.329041,1001.396973 358.776245,1001.717651 
	C358.656006,1001.735046 358.352936,1001.604187 357.957458,1001.223267 
z"/>
<path fill="#7A5336" opacity="1.000000" stroke="none" 
	d="
M769.732910,677.214233 
	C774.100220,676.032043 778.165466,675.034302 782.631104,674.026489 
	C779.989441,676.016785 777.076416,678.255920 773.885376,679.980774 
	C737.683167,699.549255 699.098816,712.707520 658.858765,720.534424 
	C632.270020,725.705994 605.352661,729.419556 578.444702,732.631958 
	C562.310425,734.558105 545.879761,735.235168 529.638733,734.714539 
	C510.226868,734.092285 490.828369,732.005554 471.507629,729.815674 
	C434.678467,725.641479 398.583557,717.828613 363.346497,706.255676 
	C334.899902,696.912964 307.791199,684.682800 282.350586,668.135864 
	C283.897675,668.243835 285.839447,668.231140 287.568848,668.830811 
	C295.134918,671.454590 302.639343,674.255859 310.557434,677.017456 
	C321.908264,680.927002 332.728516,685.276550 343.853302,688.609924 
	C378.065277,698.861084 412.966736,706.234863 448.386536,710.549377 
	C473.458008,713.603455 498.713959,715.329834 523.932678,716.942993 
	C558.443359,719.150635 592.695679,715.465454 626.889893,711.200500 
	C673.147949,705.430847 718.455933,695.528259 762.555115,680.308655 
	C764.902161,679.498657 767.141296,678.375793 769.732910,677.214233 
z"/>
<path fill="#7A5336" opacity="1.000000" stroke="none" 
	d="
M783.285645,673.912720 
	C783.526917,673.437195 784.045410,672.839355 784.849548,672.121582 
	C784.611023,672.597839 784.086914,673.194153 783.285645,673.912720 
z"/>
</svg>